<svg xmlns="http://www.w3.org/2000/svg" xmlns:xlink="http://www.w3.org/1999/xlink" width="325" zoomAndPan="magnify" viewBox="0 0 243.75 48" height="64" preserveAspectRatio="xMidYMid meet" version="1.0"><defs><g/><clipPath id="5dc8d87a7c"><path d="M 4.976562 0 L 51.996094 0 L 51.996094 47.019531 L 4.976562 47.019531 Z M 4.976562 0 " clip-rule="nonzero"/></clipPath><clipPath id="8194bb5b3b"><path d="M 28.488281 0 C 15.503906 0 4.976562 10.527344 4.976562 23.511719 C 4.976562 36.496094 15.503906 47.019531 28.488281 47.019531 C 41.472656 47.019531 51.996094 36.496094 51.996094 23.511719 C 51.996094 10.527344 41.472656 0 28.488281 0 Z M 28.488281 0 " clip-rule="nonzero"/></clipPath><clipPath id="d7de5a4077"><path d="M 10.703125 5.726562 L 45.96875 5.726562 L 45.96875 40.988281 L 10.703125 40.988281 Z M 10.703125 5.726562 " clip-rule="nonzero"/></clipPath></defs><g clip-path="url(#5dc8d87a7c)"><g clip-path="url(#8194bb5b3b)"><path fill="#fef3c7" d="M 4.976562 0 L 51.996094 0 L 51.996094 47.019531 L 4.976562 47.019531 Z M 4.976562 0 " fill-opacity="1" fill-rule="nonzero"/></g></g><g clip-path="url(#d7de5a4077)"><path fill="#f24855" d="M 21.492188 36.675781 C 21.253906 36.558594 21.089844 36.304688 21.089844 36.019531 C 21.089844 34.023438 21.910156 32.210938 23.214844 30.902344 C 23.410156 30.703125 23.644531 30.5 23.871094 30.316406 C 24.179688 30.703125 24.433594 31.132812 24.617188 31.585938 C 24.484375 31.691406 24.363281 31.8125 24.242188 31.929688 C 23.277344 32.898438 22.648438 34.1875 22.558594 35.621094 C 23.171875 35.964844 23.644531 36.183594 24.09375 36.246094 C 24.527344 36.304688 25.003906 36.21875 25.648438 35.992188 L 25.648438 33.546875 C 25.648438 31.953125 24.992188 30.5 23.933594 29.453125 C 22.890625 28.398438 21.445312 27.753906 19.855469 27.753906 C 18.558594 27.753906 17.367188 28.183594 16.40625 28.890625 C 15.496094 29.574219 14.792969 30.503906 14.40625 31.59375 C 15.101562 32.753906 15.941406 33.84375 16.894531 34.800781 C 19.820312 37.726562 23.878906 39.535156 28.339844 39.535156 C 29.414062 39.535156 30.464844 39.429688 31.507812 39.210938 C 32.402344 39.03125 33.273438 38.777344 34.132812 38.460938 L 34.132812 36.015625 C 34.132812 34.421875 33.476562 32.980469 32.417969 31.921875 C 31.375 30.878906 29.929688 30.222656 28.339844 30.222656 C 27.898438 30.222656 27.472656 30.28125 27.058594 30.371094 C 26.859375 29.90625 26.613281 29.460938 26.324219 29.058594 C 26.964844 28.871094 27.636719 28.761719 28.339844 28.761719 C 29.464844 28.761719 30.535156 29.03125 31.488281 29.484375 C 32.085938 28.601562 32.875 27.867188 33.785156 27.316406 C 34.871094 26.660156 36.140625 26.289062 37.488281 26.289062 C 38.933594 26.289062 40.296875 26.71875 41.433594 27.464844 C 42.179688 27.960938 42.851562 28.585938 43.371094 29.328125 C 44.105469 27.457031 44.507812 25.421875 44.507812 23.347656 C 44.507812 18.882812 42.703125 14.839844 39.773438 11.914062 C 36.847656 8.988281 32.804688 7.179688 28.339844 7.179688 C 23.878906 7.179688 19.820312 8.992188 16.894531 11.921875 C 13.96875 14.847656 12.160156 18.890625 12.160156 23.355469 C 12.160156 25.710938 12.667969 27.9375 13.566406 29.960938 C 14.058594 29.09375 14.742188 28.332031 15.546875 27.726562 C 16.765625 26.832031 18.25 26.296875 19.863281 26.296875 C 21.859375 26.296875 23.660156 27.113281 24.96875 28.417969 C 26.28125 29.722656 27.09375 31.550781 27.09375 33.539062 L 27.09375 36.480469 C 27.09375 36.789062 26.894531 37.066406 26.613281 37.164062 C 25.507812 37.613281 24.714844 37.777344 23.914062 37.671875 C 23.136719 37.578125 22.445312 37.234375 21.492188 36.675781 Z M 19.863281 18.394531 C 20.789062 18.394531 21.613281 18.769531 22.21875 19.363281 C 22.820312 19.960938 23.191406 20.808594 23.191406 21.71875 C 23.191406 22.640625 22.820312 23.464844 22.21875 24.074219 C 21.621094 24.671875 20.789062 25.046875 19.863281 25.046875 C 18.953125 25.046875 18.113281 24.671875 17.507812 24.074219 C 16.910156 23.472656 16.542969 22.640625 16.542969 21.71875 C 16.542969 20.808594 16.902344 19.96875 17.507812 19.363281 C 18.109375 18.769531 18.953125 18.394531 19.863281 18.394531 Z M 21.191406 20.382812 C 20.859375 20.054688 20.386719 19.847656 19.863281 19.847656 C 19.355469 19.847656 18.890625 20.046875 18.539062 20.382812 C 18.207031 20.730469 17.988281 21.203125 17.988281 21.710938 C 17.988281 22.234375 18.199219 22.699219 18.539062 23.035156 C 18.882812 23.367188 19.355469 23.585938 19.863281 23.585938 C 20.386719 23.585938 20.851562 23.375 21.191406 23.035156 C 21.527344 22.699219 21.738281 22.234375 21.738281 21.710938 C 21.734375 21.203125 21.519531 20.730469 21.191406 20.382812 Z M 36.804688 18.394531 C 37.730469 18.394531 38.554688 18.769531 39.160156 19.363281 C 39.761719 19.960938 40.128906 20.808594 40.128906 21.71875 C 40.128906 22.640625 39.765625 23.464844 39.160156 24.074219 C 38.5625 24.671875 37.730469 25.046875 36.804688 25.046875 C 35.882812 25.046875 35.054688 24.671875 34.449219 24.074219 C 33.851562 23.472656 33.476562 22.640625 33.476562 21.71875 C 33.476562 20.808594 33.851562 19.96875 34.449219 19.363281 C 35.054688 18.769531 35.882812 18.394531 36.804688 18.394531 Z M 38.132812 20.382812 C 37.785156 20.054688 37.3125 19.847656 36.804688 19.847656 C 36.285156 19.847656 35.816406 20.046875 35.480469 20.382812 C 35.148438 20.730469 34.929688 21.203125 34.929688 21.710938 C 34.929688 22.234375 35.140625 22.699219 35.480469 23.035156 C 35.816406 23.375 36.285156 23.585938 36.804688 23.585938 C 37.3125 23.585938 37.777344 23.375 38.132812 23.035156 C 38.460938 22.703125 38.679688 22.234375 38.679688 21.710938 C 38.679688 21.203125 38.460938 20.730469 38.132812 20.382812 Z M 28.339844 20.816406 C 29.25 20.816406 30.078125 21.1875 30.683594 21.789062 C 31.28125 22.386719 31.65625 23.21875 31.65625 24.144531 C 31.65625 25.054688 31.28125 25.878906 30.683594 26.484375 C 30.082031 27.085938 29.25 27.457031 28.339844 27.457031 C 27.417969 27.457031 26.59375 27.085938 25.984375 26.484375 C 25.386719 25.886719 25.011719 25.054688 25.011719 24.144531 C 25.011719 23.21875 25.386719 22.394531 25.984375 21.789062 C 26.59375 21.1875 27.417969 20.816406 28.339844 20.816406 Z M 29.652344 22.816406 C 29.320312 22.488281 28.847656 22.269531 28.339844 22.269531 C 27.820312 22.269531 27.355469 22.480469 27.015625 22.816406 C 26.671875 23.148438 26.464844 23.621094 26.464844 24.144531 C 26.464844 24.652344 26.664062 25.117188 27.015625 25.457031 C 27.347656 25.800781 27.820312 26.007812 28.339844 26.007812 C 28.847656 26.007812 29.316406 25.808594 29.652344 25.457031 C 30 25.125 30.203125 24.652344 30.203125 24.144531 C 30.203125 23.621094 30 23.15625 29.652344 22.816406 Z M 32.714844 30.25 C 32.984375 30.449219 33.222656 30.667969 33.449219 30.894531 C 34.761719 32.207031 35.570312 34.023438 35.570312 36.015625 L 35.570312 38.957031 C 35.570312 39.285156 35.359375 39.570312 35.050781 39.652344 C 33.992188 40.097656 32.898438 40.414062 31.796875 40.640625 C 30.660156 40.867188 29.5 40.988281 28.335938 40.988281 C 23.453125 40.988281 19.050781 39.003906 15.859375 35.824219 C 12.683594 32.636719 10.703125 28.234375 10.703125 23.355469 C 10.703125 18.488281 12.683594 14.085938 15.863281 10.890625 C 19.058594 7.710938 23.460938 5.726562 28.339844 5.726562 C 33.207031 5.726562 37.609375 7.710938 40.804688 10.890625 C 43.984375 14.085938 45.96875 18.488281 45.96875 23.355469 C 45.96875 26.113281 45.324219 28.785156 44.132812 31.191406 C 44.105469 31.230469 44.089844 31.265625 44.070312 31.308594 C 44.011719 31.402344 43.976562 31.5 43.921875 31.59375 C 42.609375 34.097656 40.683594 36.273438 38.28125 37.917969 C 37.949219 38.144531 37.503906 38.050781 37.277344 37.726562 C 37.050781 37.398438 37.128906 36.9375 37.46875 36.710938 C 39.675781 35.203125 41.4375 33.207031 42.644531 30.90625 C 42.195312 30.011719 41.496094 29.234375 40.648438 28.6875 C 39.738281 28.101562 38.652344 27.746094 37.496094 27.746094 C 36.410156 27.746094 35.394531 28.042969 34.542969 28.566406 C 33.808594 28.996094 33.195312 29.574219 32.714844 30.25 Z M 32.714844 30.25 " fill-opacity="1" fill-rule="nonzero"/></g><g fill="#fef3c7" fill-opacity="1"><g transform="translate(59.266654, 32.495155)"><g><path d="M 17.078125 -16.703125 L 17.078125 0 L 13.984375 0 L 13.984375 -7.15625 L 5.34375 -7.15625 L 5.34375 0 L 2.25 0 L 2.25 -16.703125 L 5.34375 -16.703125 L 5.34375 -9.8125 L 13.984375 -9.8125 L 13.984375 -16.703125 Z M 17.078125 -16.703125 "/></g></g></g><g fill="#fef3c7" fill-opacity="1"><g transform="translate(83.358265, 32.495155)"><g><path d="M 13.078125 -3.859375 L 4.71875 -3.859375 L 3.078125 0 L -0.125 0 L 7.390625 -16.703125 L 10.453125 -16.703125 L 17.984375 0 L 14.75 0 Z M 12.046875 -6.296875 L 8.90625 -13.59375 L 5.78125 -6.296875 Z M 12.046875 -6.296875 "/></g></g></g><g fill="#fef3c7" fill-opacity="1"><g transform="translate(105.99491, 32.495155)"><g><path d="M 14.078125 -8.6875 C 14.992188 -8.382812 15.722656 -7.878906 16.265625 -7.171875 C 16.804688 -6.460938 17.078125 -5.582031 17.078125 -4.53125 C 17.078125 -3.082031 16.519531 -1.960938 15.40625 -1.171875 C 14.300781 -0.390625 12.679688 0 10.546875 0 L 2.25 0 L 2.25 -16.703125 L 10.0625 -16.703125 C 12.039062 -16.703125 13.5625 -16.316406 14.625 -15.546875 C 15.6875 -14.773438 16.21875 -13.710938 16.21875 -12.359375 C 16.21875 -11.535156 16.023438 -10.800781 15.640625 -10.15625 C 15.265625 -9.519531 14.742188 -9.03125 14.078125 -8.6875 Z M 5.34375 -14.265625 L 5.34375 -9.65625 L 9.734375 -9.65625 C 10.816406 -9.65625 11.644531 -9.847656 12.21875 -10.234375 C 12.800781 -10.628906 13.09375 -11.203125 13.09375 -11.953125 C 13.09375 -12.710938 12.800781 -13.285156 12.21875 -13.671875 C 11.644531 -14.066406 10.816406 -14.265625 9.734375 -14.265625 Z M 10.359375 -2.4375 C 12.753906 -2.4375 13.953125 -3.238281 13.953125 -4.84375 C 13.953125 -6.445312 12.753906 -7.25 10.359375 -7.25 L 5.34375 -7.25 L 5.34375 -2.4375 Z M 10.359375 -2.4375 "/></g></g></g><g fill="#fef3c7" fill-opacity="1"><g transform="translate(128.917771, 32.495155)"><g><path d="M 2.25 -16.703125 L 5.34375 -16.703125 L 5.34375 0 L 2.25 0 Z M 2.25 -16.703125 "/></g></g></g><g fill="#fef3c7" fill-opacity="1"><g transform="translate(141.298038, 32.495155)"><g><path d="M 5.625 -14.078125 L 0.09375 -14.078125 L 0.09375 -16.703125 L 14.265625 -16.703125 L 14.265625 -14.078125 L 8.734375 -14.078125 L 8.734375 0 L 5.625 0 Z M 5.625 -14.078125 "/></g></g></g><g fill="#fef3c7" fill-opacity="1"><g transform="translate(160.42843, 32.495155)"><g><path d="M 13.078125 -3.859375 L 4.71875 -3.859375 L 3.078125 0 L -0.125 0 L 7.390625 -16.703125 L 10.453125 -16.703125 L 17.984375 0 L 14.75 0 Z M 12.046875 -6.296875 L 8.90625 -13.59375 L 5.78125 -6.296875 Z M 12.046875 -6.296875 "/></g></g></g><g fill="#fef3c7" fill-opacity="1"><g transform="translate(183.065075, 32.495155)"><g><path d="M 7.421875 0.234375 C 6.128906 0.234375 4.882812 0.0507812 3.6875 -0.3125 C 2.488281 -0.675781 1.535156 -1.160156 0.828125 -1.765625 L 1.90625 -4.171875 C 2.59375 -3.628906 3.429688 -3.1875 4.421875 -2.84375 C 5.421875 -2.507812 6.421875 -2.34375 7.421875 -2.34375 C 8.660156 -2.34375 9.585938 -2.539062 10.203125 -2.9375 C 10.816406 -3.332031 11.125 -3.859375 11.125 -4.515625 C 11.125 -4.984375 10.953125 -5.375 10.609375 -5.6875 C 10.265625 -6 9.828125 -6.242188 9.296875 -6.421875 C 8.773438 -6.597656 8.0625 -6.796875 7.15625 -7.015625 C 5.882812 -7.316406 4.851562 -7.617188 4.0625 -7.921875 C 3.28125 -8.222656 2.601562 -8.695312 2.03125 -9.34375 C 1.46875 -9.988281 1.1875 -10.859375 1.1875 -11.953125 C 1.1875 -12.878906 1.4375 -13.71875 1.9375 -14.46875 C 2.445312 -15.226562 3.203125 -15.828125 4.203125 -16.265625 C 5.210938 -16.710938 6.453125 -16.9375 7.921875 -16.9375 C 8.941406 -16.9375 9.941406 -16.804688 10.921875 -16.546875 C 11.910156 -16.296875 12.765625 -15.929688 13.484375 -15.453125 L 12.5 -13.046875 C 11.769531 -13.472656 11.003906 -13.796875 10.203125 -14.015625 C 9.410156 -14.242188 8.640625 -14.359375 7.890625 -14.359375 C 6.671875 -14.359375 5.757812 -14.148438 5.15625 -13.734375 C 4.5625 -13.328125 4.265625 -12.78125 4.265625 -12.09375 C 4.265625 -11.613281 4.4375 -11.222656 4.78125 -10.921875 C 5.125 -10.617188 5.554688 -10.378906 6.078125 -10.203125 C 6.609375 -10.035156 7.328125 -9.835938 8.234375 -9.609375 C 9.472656 -9.328125 10.488281 -9.03125 11.28125 -8.71875 C 12.082031 -8.40625 12.765625 -7.929688 13.328125 -7.296875 C 13.890625 -6.660156 14.171875 -5.800781 14.171875 -4.71875 C 14.171875 -3.800781 13.921875 -2.96875 13.421875 -2.21875 C 12.921875 -1.46875 12.160156 -0.867188 11.140625 -0.421875 C 10.117188 0.015625 8.878906 0.234375 7.421875 0.234375 Z M 7.421875 0.234375 "/></g></g></g><g fill="#fef3c7" fill-opacity="1"><g transform="translate(202.83947, 32.495155)"><g><path d="M 8 -6.984375 L 5.34375 -4.265625 L 5.34375 0 L 2.25 0 L 2.25 -16.703125 L 5.34375 -16.703125 L 5.34375 -8.140625 L 13.59375 -16.703125 L 17.078125 -16.703125 L 10.0625 -9.234375 L 17.515625 0 L 13.890625 0 Z M 8 -6.984375 "/></g></g></g></svg>