<svg xmlns="http://www.w3.org/2000/svg" xmlns:xlink="http://www.w3.org/1999/xlink" width="500" zoomAndPan="magnify" viewBox="0 0 375 374.999991" height="500" preserveAspectRatio="xMidYMid meet" version="1.0"><defs><clipPath id="2f3d49ca2d"><path d="M 18.75 18.75 L 356.25 18.75 L 356.25 356.25 L 18.75 356.25 Z M 18.75 18.75 " clip-rule="nonzero"/></clipPath><clipPath id="4558bd00f9"><path d="M 187.5 18.75 C 94.300781 18.75 18.75 94.300781 18.75 187.5 C 18.75 280.699219 94.300781 356.25 187.5 356.25 C 280.699219 356.25 356.25 280.699219 356.25 187.5 C 356.25 94.300781 280.699219 18.75 187.5 18.75 Z M 187.5 18.75 " clip-rule="nonzero"/></clipPath><clipPath id="bbe4e47311"><path d="M 55.15625 55.15625 L 319.90625 55.15625 L 319.90625 319.90625 L 55.15625 319.90625 Z M 55.15625 55.15625 " clip-rule="nonzero"/></clipPath></defs><g clip-path="url(#2f3d49ca2d)"><g clip-path="url(#4558bd00f9)"><path fill="#fef3c7" d="M 18.75 18.75 L 356.25 18.75 L 356.25 356.25 L 18.75 356.25 Z M 18.75 18.75 " fill-opacity="1" fill-rule="nonzero"/></g></g><g clip-path="url(#bbe4e47311)"><path fill="#f24855" d="M 136.171875 287.527344 C 134.371094 286.628906 133.152344 284.722656 133.152344 282.605469 C 133.152344 267.621094 139.296875 254.011719 149.089844 244.164062 C 150.574219 242.679688 152.320312 241.144531 154.015625 239.769531 C 156.34375 242.679688 158.25 245.910156 159.628906 249.300781 C 158.621094 250.09375 157.722656 250.992188 156.820312 251.894531 C 149.566406 259.148438 144.855469 268.835938 144.167969 279.585938 C 148.773438 282.179688 152.320312 283.824219 155.710938 284.300781 C 158.941406 284.722656 162.539062 284.085938 167.359375 282.394531 L 167.359375 264.019531 C 167.359375 252.050781 162.433594 241.144531 154.492188 233.308594 C 146.65625 225.367188 135.800781 220.546875 123.886719 220.546875 C 114.144531 220.546875 105.195312 223.777344 97.996094 229.070312 C 91.164062 234.207031 85.867188 241.199219 82.957031 249.351562 C 88.199219 258.089844 94.5 266.242188 101.648438 273.445312 C 123.621094 295.417969 154.070312 308.972656 187.585938 308.972656 C 195.632812 308.972656 203.523438 308.179688 211.359375 306.539062 C 218.085938 305.214844 224.597656 303.308594 231.058594 300.925781 L 231.058594 282.550781 C 231.058594 270.585938 226.132812 259.78125 218.191406 251.839844 C 210.355469 244.003906 199.5 239.078125 187.585938 239.078125 C 184.25 239.078125 181.074219 239.503906 177.949219 240.191406 C 176.464844 236.695312 174.613281 233.359375 172.441406 230.34375 C 177.261719 228.914062 182.289062 228.117188 187.585938 228.117188 C 196.003906 228.117188 204.054688 230.132812 211.203125 233.519531 C 215.703125 226.902344 221.632812 221.394531 228.464844 217.265625 C 236.617188 212.339844 246.148438 209.535156 256.261719 209.535156 C 267.117188 209.535156 277.335938 212.761719 285.859375 218.375 C 291.472656 222.082031 296.503906 226.796875 300.421875 232.355469 C 305.929688 218.324219 308.945312 203.019531 308.945312 187.453125 C 308.945312 153.9375 295.390625 123.59375 273.417969 101.621094 C 251.445312 79.648438 221.101562 66.09375 187.585938 66.09375 C 154.070312 66.09375 123.621094 79.699219 101.648438 101.675781 C 79.671875 123.648438 66.117188 153.988281 66.117188 187.507812 C 66.117188 205.191406 69.929688 221.921875 76.65625 237.121094 C 80.363281 230.609375 85.5 224.890625 91.535156 220.335938 C 100.695312 213.609375 111.8125 209.585938 123.941406 209.585938 C 138.925781 209.585938 152.425781 215.730469 162.277344 225.523438 C 172.125 235.320312 178.214844 249.035156 178.214844 263.964844 L 178.214844 286.046875 C 178.214844 288.375 176.730469 290.441406 174.613281 291.183594 C 166.300781 294.570312 160.371094 295.789062 154.332031 294.996094 C 148.507812 294.304688 143.320312 291.710938 136.171875 287.527344 Z M 123.941406 150.28125 C 130.875 150.28125 137.070312 153.089844 141.625 157.535156 C 146.125 162.039062 148.933594 168.390625 148.933594 175.222656 C 148.933594 182.160156 146.125 188.351562 141.625 192.90625 C 137.125 197.40625 130.875 200.214844 123.941406 200.214844 C 117.109375 200.214844 110.808594 197.40625 106.253906 192.90625 C 101.753906 188.40625 99 182.160156 99 175.222656 C 99 168.390625 101.699219 162.089844 106.253906 157.535156 C 110.753906 153.089844 117.109375 150.28125 123.941406 150.28125 Z M 133.894531 165.214844 C 131.40625 162.726562 127.859375 161.191406 123.941406 161.191406 C 120.128906 161.191406 116.632812 162.671875 113.984375 165.214844 C 111.496094 167.808594 109.855469 171.355469 109.855469 175.167969 C 109.855469 179.085938 111.445312 182.582031 113.984375 185.125 C 116.578125 187.613281 120.128906 189.253906 123.941406 189.253906 C 127.859375 189.253906 131.351562 187.664062 133.894531 185.125 C 136.4375 182.582031 138.023438 179.085938 138.023438 175.167969 C 137.972656 171.355469 136.382812 167.808594 133.894531 165.214844 Z M 251.125 150.28125 C 258.0625 150.28125 264.257812 153.089844 268.8125 157.535156 C 273.3125 162.039062 276.066406 168.390625 276.066406 175.222656 C 276.066406 182.160156 273.363281 188.351562 268.8125 192.90625 C 264.308594 197.40625 258.0625 200.214844 251.125 200.214844 C 244.1875 200.214844 237.992188 197.40625 233.441406 192.90625 C 228.941406 188.40625 226.132812 182.160156 226.132812 175.222656 C 226.132812 168.390625 228.941406 162.089844 233.441406 157.535156 C 237.992188 153.089844 244.1875 150.28125 251.125 150.28125 Z M 261.082031 165.214844 C 258.484375 162.726562 254.9375 161.191406 251.125 161.191406 C 247.207031 161.191406 243.710938 162.671875 241.171875 165.214844 C 238.683594 167.808594 237.042969 171.355469 237.042969 175.167969 C 237.042969 179.085938 238.628906 182.582031 241.171875 185.125 C 243.710938 187.664062 247.207031 189.253906 251.125 189.253906 C 254.9375 189.253906 258.433594 187.664062 261.082031 185.125 C 263.570312 182.636719 265.210938 179.085938 265.210938 175.167969 C 265.210938 171.355469 263.570312 167.808594 261.082031 165.214844 Z M 187.585938 168.445312 C 194.417969 168.445312 200.613281 171.25 205.164062 175.75 C 209.664062 180.253906 212.472656 186.5 212.472656 193.4375 C 212.472656 200.265625 209.664062 206.460938 205.164062 211.015625 C 200.664062 215.515625 194.417969 218.324219 187.585938 218.324219 C 180.648438 218.324219 174.453125 215.515625 169.902344 211.015625 C 165.398438 206.515625 162.59375 200.265625 162.59375 193.4375 C 162.59375 186.5 165.398438 180.304688 169.902344 175.75 C 174.453125 171.25 180.648438 168.445312 187.585938 168.445312 Z M 197.433594 183.480469 C 194.945312 180.992188 191.398438 179.351562 187.585938 179.351562 C 183.667969 179.351562 180.171875 180.941406 177.632812 183.480469 C 175.035156 185.972656 173.5 189.519531 173.5 193.4375 C 173.5 197.25 174.984375 200.742188 177.632812 203.285156 C 180.121094 205.878906 183.667969 207.414062 187.585938 207.414062 C 191.398438 207.414062 194.894531 205.933594 197.433594 203.285156 C 200.027344 200.796875 201.566406 197.25 201.566406 193.4375 C 201.566406 189.519531 200.027344 186.023438 197.433594 183.480469 Z M 220.414062 239.292969 C 222.425781 240.773438 224.226562 242.414062 225.921875 244.109375 C 235.769531 253.957031 241.859375 267.621094 241.859375 282.550781 L 241.859375 304.632812 C 241.859375 307.121094 240.269531 309.238281 237.941406 309.875 C 230 313.210938 221.792969 315.59375 213.53125 317.285156 C 205.007812 318.980469 196.269531 319.882812 187.53125 319.882812 C 150.890625 319.882812 117.851562 305.003906 93.863281 281.121094 C 70.035156 257.1875 55.15625 224.148438 55.15625 187.507812 C 55.15625 150.972656 70.035156 117.929688 93.917969 93.945312 C 117.902344 70.0625 150.945312 55.183594 187.585938 55.183594 C 224.121094 55.183594 257.160156 70.0625 281.148438 93.945312 C 305.027344 117.929688 319.90625 150.972656 319.90625 187.507812 C 319.90625 208.210938 315.089844 228.277344 306.140625 246.332031 C 305.929688 246.652344 305.824219 246.917969 305.664062 247.234375 C 305.242188 247.921875 304.976562 248.664062 304.550781 249.351562 C 294.703125 268.148438 280.25 284.511719 262.191406 296.847656 C 259.703125 298.542969 256.367188 297.855469 254.671875 295.417969 C 252.980469 292.929688 253.5625 289.488281 256.101562 287.792969 C 272.675781 276.460938 285.914062 261.476562 294.96875 244.214844 C 291.578125 237.492188 286.335938 231.667969 279.984375 227.535156 C 273.152344 223.140625 265 220.496094 256.316406 220.496094 C 248.160156 220.496094 240.535156 222.71875 234.128906 226.636719 C 228.621094 229.867188 224.015625 234.207031 220.414062 239.292969 Z M 220.414062 239.292969 " fill-opacity="1" fill-rule="nonzero"/></g></svg>